<svg width="32" height="32" viewBox="0 0 32 32" fill="none" xmlns="http://www.w3.org/2000/svg">
<path d="M17 2C18.6569 2 20 3.34315 20 5V13C20 13.5523 19.5523 14 19 14C18.4477 14 18 13.5523 18 13V5C18 4.44772 17.5523 4 17 4H5C4.44772 4 4 4.44772 4 5V17C4 17.5523 4.44772 18 5 18H9C9.55229 18 10 18.4477 10 19C10 19.5523 9.55229 20 9 20H5C3.34315 20 2 18.6569 2 17V5C2 3.34315 3.34315 2 5 2H17Z" fill="#12B870"/>
<path d="M28 15C28 14.4477 27.5523 14 27 14H23C22.4477 14 22 13.5523 22 13C22 12.4477 22.4477 12 23 12H27C28.6569 12 30 13.3431 30 15V27C30 28.6569 28.6569 30 27 30H15C13.3431 30 12 28.6569 12 27V19C12 18.4477 12.4477 18 13 18C13.5523 18 14 18.4477 14 19V27C14 27.5523 14.4477 28 15 28H27C27.5523 28 28 27.5523 28 27V15Z" fill="#12B870"/>
<path d="M20.2815 23.821H23.7617V25.4424H18.2383V16.5576H23.7089V18.179H20.2815V20.1959H23.3398V21.8041H20.2815V23.821Z" fill="#12B870"/>
<path d="M15.4577 8.2061V6.78372H11.4065V8.2061H12.3844V10.9111H10.3905C10.145 10.7164 9.84442 10.5937 9.48883 10.5429C9.91215 10.4243 10.2381 10.2084 10.4667 9.89517C10.6953 9.58191 10.8096 9.20515 10.8096 8.76489C10.8096 8.12143 10.5895 7.61767 10.1492 7.25361C9.70896 6.88109 9.08244 6.69482 8.26965 6.69482C7.70239 6.69482 7.21134 6.77526 6.79648 6.93612V8.54899C7.25367 8.33733 7.69816 8.2315 8.12995 8.2315C8.72261 8.2315 9.01894 8.48549 9.01894 8.99348C9.01894 9.51841 8.66758 9.78087 7.96486 9.78087H7.57116V11.2794H8.09185C8.54904 11.2794 8.86231 11.3599 9.03164 11.5207C9.20943 11.6816 9.29833 11.8975 9.29833 12.1684C9.29833 12.8796 8.9258 13.2352 8.18075 13.2352C7.63043 13.2352 7.08434 13.0913 6.54248 12.8034V14.4544C7.07587 14.6406 7.65159 14.7338 8.26965 14.7338C9.18403 14.7338 9.86982 14.5221 10.327 14.0988C10.7927 13.6755 11.0255 13.1251 11.0255 12.4478V12.3589H12.3844V15.3053H14.1877V8.2061H15.4577Z" fill="#12B870"/>
</svg>
