<svg width="30" height="30" viewBox="0 0 30 30" fill="none" xmlns="http://www.w3.org/2000/svg">
<path d="M15.9375 1.875C17.4908 1.875 18.75 3.1342 18.75 4.6875V12.1875C18.75 12.7053 18.3303 13.125 17.8125 13.125C17.2947 13.125 16.875 12.7053 16.875 12.1875V4.6875C16.875 4.16973 16.4553 3.75 15.9375 3.75H4.6875C4.16973 3.75 3.75 4.16973 3.75 4.6875V15.9375C3.75 16.4553 4.16973 16.875 4.6875 16.875H8.4375C8.95527 16.875 9.375 17.2947 9.375 17.8125C9.375 18.3303 8.95527 18.75 8.4375 18.75H4.6875C3.1342 18.75 1.875 17.4908 1.875 15.9375V4.6875C1.875 3.1342 3.1342 1.875 4.6875 1.875H15.9375Z" fill="white"/>
<path d="M26.25 14.0625C26.25 13.5447 25.8303 13.125 25.3125 13.125H21.5625C21.0447 13.125 20.625 12.7053 20.625 12.1875C20.625 11.6697 21.0447 11.25 21.5625 11.25H25.3125C26.8658 11.25 28.125 12.5092 28.125 14.0625V25.3125C28.125 26.8658 26.8658 28.125 25.3125 28.125H14.0625C12.5092 28.125 11.25 26.8658 11.25 25.3125V17.8125C11.25 17.2947 11.6697 16.875 12.1875 16.875C12.7053 16.875 13.125 17.2947 13.125 17.8125V25.3125C13.125 25.8303 13.5447 26.25 14.0625 26.25H25.3125C25.8303 26.25 26.25 25.8303 26.25 25.3125V14.0625Z" fill="white"/>
<path d="M19.0139 22.3322H22.2765V23.8523H17.0984V15.5227H22.2271V17.0428H19.0139V18.9336H21.8811V20.4413H19.0139V22.3322Z" fill="white"/>
<path d="M14.4916 7.69322V6.35974H10.6936V7.69322H11.6104V10.2292H9.7411C9.51092 10.0466 9.22915 9.93155 8.89578 9.88393C9.29264 9.7728 9.59823 9.5704 9.81254 9.27672C10.0268 8.98304 10.134 8.62982 10.134 8.21708C10.134 7.61384 9.92763 7.14157 9.51489 6.80026C9.10215 6.45102 8.51478 6.2764 7.7528 6.2764C7.22099 6.2764 6.76063 6.3518 6.3717 6.50261V8.01468C6.80031 7.81624 7.21702 7.71703 7.62183 7.71703C8.17745 7.71703 8.45525 7.95515 8.45525 8.43139C8.45525 8.92351 8.12585 9.16956 7.46705 9.16956H7.09796V10.5745H7.58611C8.01473 10.5745 8.30841 10.6499 8.46716 10.8007C8.63384 10.9515 8.71719 11.1539 8.71719 11.4079C8.71719 12.0746 8.36794 12.408 7.66945 12.408C7.15353 12.408 6.64157 12.2731 6.13358 12.0032V13.551C6.63363 13.7256 7.17337 13.8129 7.7528 13.8129C8.61003 13.8129 9.25296 13.6145 9.68157 13.2176C10.1181 12.8207 10.3364 12.3048 10.3364 11.6698V11.5865H11.6104V14.3487H13.301V7.69322H14.4916Z" fill="white"/>
</svg>
