<svg width="30" height="30" viewBox="0 0 30 30" fill="none" xmlns="http://www.w3.org/2000/svg">
<path fill-rule="evenodd" clip-rule="evenodd" d="M11.25 4.6875C11.25 3.1342 12.5092 1.875 14.0625 1.875H15.9375C17.4908 1.875 18.75 3.1342 18.75 4.6875V25.3125C18.75 26.8658 17.4908 28.125 15.9375 28.125H14.0625C12.5092 28.125 11.25 26.8658 11.25 25.3125V4.6875ZM14.0625 3.75C13.5447 3.75 13.125 4.16973 13.125 4.6875V25.3125C13.125 25.8303 13.5447 26.25 14.0625 26.25H15.9375C16.4553 26.25 16.875 25.8303 16.875 25.3125V4.6875C16.875 4.16973 16.4553 3.75 15.9375 3.75H14.0625Z" fill="white"/>
<path fill-rule="evenodd" clip-rule="evenodd" d="M1.875 15.9375C1.875 14.3842 3.1342 13.125 4.6875 13.125H6.5625C8.1158 13.125 9.375 14.3842 9.375 15.9375V25.3125C9.375 26.8658 8.1158 28.125 6.5625 28.125H4.6875C3.1342 28.125 1.875 26.8658 1.875 25.3125V15.9375ZM4.6875 15C4.16973 15 3.75 15.4197 3.75 15.9375V25.3125C3.75 25.8303 4.16973 26.25 4.6875 26.25H6.5625C7.08027 26.25 7.5 25.8303 7.5 25.3125V15.9375C7.5 15.4197 7.08027 15 6.5625 15H4.6875Z" fill="white"/>
<path fill-rule="evenodd" clip-rule="evenodd" d="M23.4375 5.625C21.8842 5.625 20.625 6.8842 20.625 8.4375V25.3125C20.625 26.8658 21.8842 28.125 23.4375 28.125H25.3125C26.8658 28.125 28.125 26.8658 28.125 25.3125V8.4375C28.125 6.8842 26.8658 5.625 25.3125 5.625H23.4375ZM22.5 8.4375C22.5 7.91973 22.9197 7.5 23.4375 7.5H25.3125C25.8303 7.5 26.25 7.91973 26.25 8.4375V25.3125C26.25 25.8303 25.8303 26.25 25.3125 26.25H23.4375C22.9197 26.25 22.5 25.8303 22.5 25.3125V8.4375Z" fill="white"/>
</svg>
