<svg width="36" height="36" viewBox="0 0 36 36" fill="none" xmlns="http://www.w3.org/2000/svg">
<path d="M10.0439 10.0464C10.4832 9.60702 10.4831 8.89471 10.0437 8.45543C9.60432 8.01615 8.89201 8.01625 8.45273 8.45565C6.01172 10.8973 4.5 14.2733 4.5 18.0003C4.5 21.7272 6.01172 25.1032 8.45273 27.5449C8.89201 27.9843 9.60432 27.9844 10.0437 27.5451C10.4831 27.1058 10.4832 26.3935 10.0439 25.9541C8.00751 23.9171 6.75 21.1066 6.75 18.0003C6.75 14.8939 8.00751 12.0834 10.0439 10.0464Z" fill="white"/>
<path d="M27.5473 8.45565C27.108 8.01625 26.3957 8.01615 25.9563 8.45543C25.5169 8.89471 25.5168 9.60702 25.9561 10.0464C27.9925 12.0834 29.25 14.8939 29.25 18.0003C29.25 21.1066 27.9925 23.9171 25.9561 25.9541C25.5168 26.3935 25.5169 27.1058 25.9563 27.5451C26.3957 27.9844 27.108 27.9843 27.5473 27.5449C29.9883 25.1032 31.5 21.7272 31.5 18.0003C31.5 14.2733 29.9883 10.8973 27.5473 8.45565Z" fill="white"/>
<path d="M14.0407 12.4188C14.4786 12.8596 14.4763 13.5719 14.0356 14.0098C13.0087 15.03 12.375 16.4401 12.375 18.0003C12.375 19.5605 13.0087 20.9706 14.0356 21.9908C14.4763 22.4287 14.4786 23.141 14.0407 23.5818C13.6028 24.0225 12.8905 24.0248 12.4498 23.5869C11.0152 22.1617 10.125 20.1839 10.125 18.0003C10.125 15.8167 11.0152 13.8389 12.4498 12.4137C12.8905 11.9758 13.6028 11.9781 14.0407 12.4188Z" fill="white"/>
<path d="M21.9593 12.4188C22.3972 11.9781 23.1095 11.9758 23.5503 12.4137C24.9848 13.8389 25.875 15.8167 25.875 18.0003C25.875 20.1839 24.9848 22.1617 23.5502 23.5869C23.1095 24.0248 22.3972 24.0225 21.9593 23.5817C21.5214 23.141 21.5237 22.4287 21.9644 21.9908C22.9913 20.9706 23.625 19.5605 23.625 18.0003C23.625 16.4401 22.9913 15.03 21.9644 14.0098C21.5237 13.5719 21.5214 12.8596 21.9593 12.4188Z" fill="white"/>
<path d="M20.25 18.0003C20.25 19.2429 19.2426 20.2503 18 20.2503C16.7574 20.2503 15.75 19.2429 15.75 18.0003C15.75 16.7576 16.7574 15.7503 18 15.7503C19.2426 15.7503 20.25 16.7576 20.25 18.0003Z" fill="white"/>
</svg>
