<svg xmlns="http://www.w3.org/2000/svg" xmlns:xlink="http://www.w3.org/1999/xlink" width="36" height="36" viewBox="0 0 36 36">
    <defs>
        <path id="a" d="M8.338.027L.041.048.046 2.19l8.298-.021z"/>
        <linearGradient id="b" x1="49.969%" x2="49.996%" y1="46.805%" y2="49.607%">
            <stop offset="0%" stop-color="#FFA031"/>
            <stop offset="100%" stop-color="#FFC631"/>
        </linearGradient>
        <path id="d" d="M6.828 0C3.07.01.033 3.123.042 6.95a6.973 6.973 0 0 0 2.218 5.104A6.98 6.98 0 0 1 .459 7.373C.449 3.544 3.487.433 7.244.423a6.708 6.708 0 0 1 4.603 1.812A6.728 6.728 0 0 0 6.846 0h-.018"/>
        <linearGradient id="e" x1="51.68%" x2="46.026%" y1="6.634%" y2="109.477%">
            <stop offset="0%" stop-color="#FFA031"/>
            <stop offset="100%" stop-color="#FFC631"/>
        </linearGradient>
        <path id="g" d="M.003.068H14.77v16.808H.003z"/>
    </defs>
    <g fill="none" fill-rule="evenodd">
        <path fill="#FFC732" d="M22.163 18.614l-8.297.022.005 2.141 8.297-.021z"/>
        <g transform="translate(13.825 18.587)">
            <mask id="c" fill="#fff">
                <use xlink:href="#a"/>
            </mask>
            <path fill="url(#b)" d="M8.338.027L.041.048.046 2.19l8.298-.021z" mask="url(#c)"/>
        </g>
        <path fill="#FFD13C" d="M26.231 27.544c.012 4.621-3.655 8.377-8.19 8.388-4.534.012-8.22-3.724-8.231-8.345-.012-4.621 3.655-8.377 8.19-8.388 4.534-.012 8.22 3.724 8.231 8.345"/>
        <path fill="#FFC732" d="M23.022 22.867a6.727 6.727 0 0 0-5.019-2.234c-3.757.01-6.795 3.122-6.785 6.95a6.974 6.974 0 0 0 2.217 5.103 6.708 6.708 0 0 0 4.603 1.812c3.757-.01 6.795-3.121 6.785-6.95a6.98 6.98 0 0 0-1.801-4.681"/>
        <g transform="translate(11.175 20.633)">
            <mask id="f" fill="#fff">
                <use xlink:href="#d"/>
            </mask>
            <path fill="url(#e)" d="M6.828 0C3.07.01.033 3.123.042 6.95a6.973 6.973 0 0 0 2.218 5.104A6.98 6.98 0 0 1 .459 7.373C.449 3.544 3.487.433 7.244.423a6.708 6.708 0 0 1 4.603 1.812A6.728 6.728 0 0 0 6.846 0h-.018" mask="url(#f)"/>
        </g>
        <g>
            <path fill="#FDDC39" d="M22.17 17.761a.3.3 0 0 1-.296.303l-7.754.02a.3.3 0 0 1-.298-.301v-.038a.3.3 0 0 1 .296-.303l7.754-.02a.3.3 0 0 1 .298.302v.037zm-.136-.9l-8.08.022a.873.873 0 0 0-.863.883c.001.486.39.88.867.878l8.08-.02a.873.873 0 0 0 .863-.883.873.873 0 0 0-.867-.88z"/>
            <path fill="#FFD13C" d="M23.704 27.55c.008 3.2-2.53 5.799-5.669 5.807-3.139.008-5.69-2.578-5.698-5.777-.008-3.198 2.53-5.798 5.67-5.806 3.138-.008 5.689 2.578 5.697 5.777"/>
            <g transform="translate(14.226 .014)">
                <mask id="h" fill="#fff">
                    <use xlink:href="#g"/>
                </mask>
                <path fill="#A550FF" d="M.003 16.876L7.134.087l7.636-.02-7.144 16.789z" mask="url(#h)"/>
            </g>
            <path fill="#DDDDF2" d="M17.058 16.883L24.19.094l.56-.001-7.145 16.788zM18.197 16.88L25.328.09l.56-.001-7.144 16.788z"/>
            <path fill="#9036FE" d="M21.85 16.87L14.636.12 7 .138l7.228 16.751z"/>
            <path fill="#FFC732" d="M18.244 35.227a.223.223 0 0 1-.22.226.223.223 0 0 1-.221-.224c0-.125.098-.226.22-.226s.221.1.221.224M17.582 14.59l.1.31c.013.041.05.068.09.068h.321c.093-.001.132.12.057.176l-.259.192a.099.099 0 0 0-.034.11l.1.31c.028.09-.072.164-.148.109l-.26-.191a.094.094 0 0 0-.112 0l-.258.192c-.075.056-.176-.018-.148-.108l.098-.31a.098.098 0 0 0-.035-.11l-.26-.19c-.074-.056-.036-.177.057-.178h.32a.096.096 0 0 0 .09-.068l.099-.31a.095.095 0 0 1 .182-.001"/>
        </g>
        <g fill="#FFD13C">
            <path d="M6.53 15.261l-.637-.092-.285-.577c-.05-.101-.215-.101-.265 0l-.285.577-.637.092a.148.148 0 0 0-.081.252l.46.45-.108.634c-.02.12.106.212.214.155l.57-.3.57.3a.148.148 0 0 0 .213-.155l-.109-.635.461-.449a.148.148 0 0 0-.082-.252z" opacity=".3"/>
            <path d="M34.2 21.529l-.85-.124-.38-.769c-.066-.134-.286-.134-.352 0l-.38.77-.85.123a.197.197 0 0 0-.108.336l.614.598-.145.846a.197.197 0 0 0 .286.207l.76-.399.759.4a.197.197 0 0 0 .285-.208l-.145-.845.615-.6a.197.197 0 0 0-.11-.335z" opacity=".7"/>
            <path d="M34.549 9.36l-.637-.093-.285-.577c-.05-.1-.215-.1-.265 0l-.284.577-.637.093a.148.148 0 0 0-.082.252l.46.449-.108.634c-.02.12.106.212.214.155l.57-.299.57.3a.148.148 0 0 0 .213-.156l-.108-.634.46-.45a.148.148 0 0 0-.081-.251z" opacity=".3"/>
        </g>
        <path fill="#ECF0F2" fill-opacity=".005" d="M0 0h36v36H0z"/>
    </g>
</svg>
