<svg xmlns="http://www.w3.org/2000/svg" width="36" height="36" viewBox="0 0 36 36">
    <g fill="none" fill-rule="evenodd">
        <ellipse cx="17.971" cy="14.103" fill="#FFD15C" fill-rule="nonzero" rx="12.929" ry="13.103"/>
        <g fill-rule="nonzero">
            <path fill="#A550FF" d="M7.497 21.768l-4.449 7.815 5.192-.28L10.6 34l4.115-7.23c-2.949-.773-5.481-2.573-7.218-5.002z"/>
            <path fill="#9036FE" d="M28.471 21.729a12.92 12.92 0 0 1-7.199 5.028L25.401 34l2.359-4.697 5.192.28-4.48-7.854z"/>
        </g>
        <ellipse cx="17.971" cy="14.103" fill="#F8B64C" fill-rule="nonzero" rx="9.372" ry="9.497"/>
        <path fill="#FFF" fill-rule="nonzero" d="M24.394 13.076c.289-.286.128-.786-.269-.844l-3.699-.546a.483.483 0 0 1-.365-.273l-1.654-3.397a.486.486 0 0 0-.878 0l-1.648 3.397a.51.51 0 0 1-.365.273l-3.699.546c-.397.058-.557.558-.269.844l2.673 2.644c.116.117.167.28.141.435l-.628 3.73a.49.49 0 0 0 .712.519l3.307-1.76a.472.472 0 0 1 .455 0l3.308 1.76a.492.492 0 0 0 .712-.52l-.635-3.729a.493.493 0 0 1 .141-.435l2.66-2.644z"/>
        <path fill="#ECF0F2" fill-opacity=".005" d="M0 0h36v36H0z"/>
    </g>
</svg>
