<svg xmlns="http://www.w3.org/2000/svg" width="36" height="36" viewBox="0 0 36 36">
    <g fill="none" fill-rule="evenodd">
        <path fill="#FFD15C" fill-rule="nonzero" d="M33 10.157v15.685c0 1.447-1.236 2.614-2.695 2.614h-.88v2.614a.87.87 0 0 1-.544.802.845.845 0 0 1-.95-.192l-3.269-3.224H12.727a2.622 2.622 0 0 1-2.637-2.614v-1.743l11.426-10.247 7.03-6.309h1.759c1.459 0 2.695 1.168 2.695 2.614z"/>
        <path fill="#F8B64C" fill-rule="nonzero" d="M33 10.157v15.685c0 1.447-1.236 2.614-2.695 2.614h-.88v2.614a.87.87 0 0 1-.544.802.845.845 0 0 1-.95-.192l-3.269-3.224h-3.146V13.852l7.03-6.309h1.759c1.459 0 2.695 1.168 2.695 2.614z"/>
        <path fill="#A550FF" fill-rule="nonzero" d="M26.79 4.058H5.636A2.622 2.622 0 0 0 3 6.672v15.684a2.622 2.622 0 0 0 2.637 2.615h.937v2.614c0 .348.211.662.545.801.317.14.703.07.95-.191l3.269-3.224h15.451a2.622 2.622 0 0 0 2.637-2.614V6.672a2.622 2.622 0 0 0-2.637-2.614z"/>
        <path fill="#9036FE" fill-rule="nonzero" d="M29.426 6.672v15.684a2.622 2.622 0 0 1-2.637 2.615H16.242V4.058H26.79a2.622 2.622 0 0 1 2.637 2.614z"/>
        <path fill="#FFF" fill-rule="nonzero" d="M24.152 18V8.415a.875.875 0 0 0-.879-.872h-3.515a4.39 4.39 0 0 0-3.516 1.743 4.39 4.39 0 0 0-3.515-1.743H9.21a.875.875 0 0 0-.879.872V18c0 .48.394.871.879.871h14.062c.486 0 .88-.39.88-.871z"/>
        <path fill="#ECF0F2" fill-rule="nonzero" d="M24.152 9.426V18a.875.875 0 0 1-.879.871h-7.03V9.286a4.39 4.39 0 0 1 3.515-1.743h3.515c.486 0 .88.39.88.872v1.011z"/>
        <path fill="#9036FE" fill-rule="nonzero" d="M14.484 19.742c.485 0 .88.391.88.872s.393.871.878.871c.486 0 .88-.39.88-.871 0-.48.393-.872.878-.872h5.273c.486 0 .88-.39.88-.871V18H18a2.64 2.64 0 0 0-1.758.667A2.64 2.64 0 0 0 14.484 18H8.332v.871c0 .481.394.871.879.871h5.273z"/>
        <path fill="#7300FF" fill-rule="nonzero" d="M17.121 20.614c0-.48.394-.872.879-.872h5.273c.486 0 .88-.39.88-.871V18H18a2.64 2.64 0 0 0-1.758.667v2.818c.486 0 .88-.39.88-.871z"/>
        <path fill="#ECF0F2" fill-opacity=".005" d="M0 0h36v36H0z"/>
    </g>
</svg>
